999
dxfrw 0.6.3
  0
SECTION
  2
HEADER
  9
$ACADVER
  1
AC1027
  9
$DWGCODEPAGE
  3
ANSI_1252
  9
$INSBASE
 10
0
 20
0
 30
0
  9
$EXTMIN
 10
1e+20
 20
1e+20
 30
1e+20
  9
$EXTMAX
 10
-1e+20
 20
-1e+20
 30
-1e+20
  9
$LIMMIN
 10
0
 20
0
  9
$LIMMAX
 10
420
 20
297
  9
$ORTHOMODE
 70
    0
  9
$REGENMODE
 70
    1
  9
$FILLMODE
 70
    1
  9
$QTEXTMODE
 70
    0
  9
$MIRRTEXT
 70
    0
  9
$LTSCALE
 40
1
  9
$ATTMODE
 70
    0
  9
$TEXTSIZE
 40
2.5
  9
$TRACEWID
 40
15.68
  9
$TEXTSTYLE
  7
STANDARD
  9
$CLAYER
  8
0
  9
$CELTYPE
  6
BYLAYER
  9
$CECOLOR
 62
  256
  9
$CELTSCALE
 40
1
  9
$DISPSILH
 70
    0
  9
$DIMSCALE
 40
2.5
  9
$DIMASZ
 40
2.5
  9
$DIMEXO
 40
0.625
  9
$DIMDLI
 40
3.75
  9
$DIMRND
 40
0
  9
$DIMDLE
 40
0
  9
$DIMEXE
 40
1.25
  9
$DIMTP
 40
0
  9
$DIMTM
 40
0
  9
$DIMTXT
 40
2.5
  9
$DIMCEN
 40
2.5
  9
$DIMTSZ
 40
0
  9
$DIMTOL
 70
    0
  9
$DIMLIM
 70
    0
  9
$DIMTIH
 70
    0
  9
$DIMTOH
 70
    0
  9
$DIMSE1
 70
    0
  9
$DIMSE2
 70
    0
  9
$DIMTAD
 70
    1
  9
$DIMZIN
 70
    8
  9
$DIMBLK
  1

  9
$DIMASO
 70
    1
  9
$DIMSHO
 70
    1
  9
$DIMPOST
  1

  9
$DIMAPOST
  1

  9
$DIMALT
 70
    0
  9
$DIMALTD
 70
    3
  9
$DIMALTF
 40
0.03937
  9
$DIMLFAC
 40
1
  9
$DIMTOFL
 70
    1
  9
$DIMTVP
 40
0
  9
$DIMTIX
 70
    0
  9
$DIMSOXD
 70
    0
  9
$DIMSAH
 70
    0
  9
$DIMBLK1
  1

  9
$DIMBLK2
  1

  9
$DIMSTYLE
  2
STANDARD
  9
$DIMCLRD
 70
    0
  9
$DIMCLRE
 70
    0
  9
$DIMCLRT
 70
    0
  9
$DIMTFAC
 40
1
  9
$DIMGAP
 40
0.625
  9
$DIMJUST
 70
    0
  9
$DIMSD1
 70
    0
  9
$DIMSD2
 70
    0
  9
$DIMTOLJ
 70
    0
  9
$DIMTZIN
 70
    8
  9
$DIMALTZ
 70
    0
  9
$DIMALTTZ
 70
    0
  9
$DIMUPT
 70
    0
  9
$DIMDEC
 70
    2
  9
$DIMTDEC
 70
    2
  9
$DIMALTU
 70
    2
  9
$DIMALTTD
 70
    3
  9
$DIMTXSTY
  7
STANDARD
  9
$DIMAUNIT
 70
    0
  9
$DIMADEC
 70
    0
  9
$DIMALTRND
 40
0
  9
$DIMAZIN
 70
    0
  9
$DIMDSEP
 70
   44
  9
$DIMATFIT
 70
    3
  9
$DIMFRAC
 70
    0
  9
$DIMLDRBLK
  1
STANDARD
  9
$DIMLUNIT
 70
    2
  9
$DIMLWD
 70
   -2
  9
$DIMLWE
 70
   -2
  9
$DIMTMOVE
 70
    0
  9
$DIMFXL
 40
1
  9
$DIMFXLON
 70
    0
  9
$DIMJOGANG
 40
0.7854
  9
$DIMTFILL
 70
    0
  9
$DIMTFILLCLR
 70
    0
  9
$DIMARCSYM
 70
    0
  9
$DIMLTYPE
  6

  9
$DIMLTEX1
  6

  9
$DIMLTEX2
  6

  9
$DIMTXTDIRECTION
 70
    0
  9
$LUNITS
 70
    2
  9
$LUPREC
 70
    4
  9
$SKETCHINC
 40
1
  9
$FILLETRAD
 40
0
  9
$AUNITS
 70
    0
  9
$AUPREC
 70
    2
  9
$MENU
  1
.
  9
$ELEVATION
 40
0
  9
$PELEVATION
 40
0
  9
$THICKNESS
 40
0
  9
$LIMCHECK
 70
    0
  9
$CHAMFERA
 40
0
  9
$CHAMFERB
 40
0
  9
$CHAMFERC
 40
0
  9
$CHAMFERD
 40
0
  9
$SKPOLY
 70
    0
  9
$USRTIMER
 70
    1
  9
$ANGBASE
 50
0
  9
$ANGDIR
 70
    0
  9
$PDMODE
 70
   34
  9
$PDSIZE
 40
0
  9
$PLINEWID
 40
0
  9
$SPLFRAME
 70
    0
  9
$SPLINETYPE
 70
    2
  9
$SPLINESEGS
 70
    8
  9
$HANDSEED
  5
20000
  9
$SURFTAB1
 70
    6
  9
$SURFTAB2
 70
    6
  9
$SURFTYPE
 70
    6
  9
$SURFU
 70
    6
  9
$SURFV
 70
    6
  9
$UCSBASE
  2

  9
$UCSNAME
  2

  9
$UCSORG
 10
0
 20
0
 30
0
  9
$UCSXDIR
 10
1
 20
0
 30
0
  9
$UCSYDIR
 10
0
 20
1
 30
0
  9
$UCSORTHOREF
  2

  9
$UCSORTHOVIEW
 70
    0
  9
$UCSORGTOP
 10
0
 20
0
 30
0
  9
$UCSORGBOTTOM
 10
0
 20
0
 30
0
  9
$UCSORGLEFT
 10
0
 20
0
 30
0
  9
$UCSORGRIGHT
 10
0
 20
0
 30
0
  9
$UCSORGFRONT
 10
0
 20
0
 30
0
  9
$UCSORGBACK
 10
0
 20
0
 30
0
  9
$PUCSBASE
  2

  9
$PUCSNAME
  2

  9
$PUCSORG
 10
0
 20
0
 30
0
  9
$PUCSXDIR
 10
1
 20
0
 30
0
  9
$PUCSYDIR
 10
0
 20
1
 30
0
  9
$PUCSORTHOREF
  2

  9
$PUCSORTHOVIEW
 70
    0
  9
$PUCSORGTOP
 10
0
 20
0
 30
0
  9
$PUCSORGBOTTOM
 10
0
 20
0
 30
0
  9
$PUCSORGLEFT
 10
0
 20
0
 30
0
  9
$PUCSORGRIGHT
 10
0
 20
0
 30
0
  9
$PUCSORGFRONT
 10
0
 20
0
 30
0
  9
$PUCSORGBACK
 10
0
 20
0
 30
0
  9
$USERI1
 70
    0
  9
$USERI2
 70
    0
  9
$USERI3
 70
    0
  9
$USERI4
 70
    0
  9
$USERI5
 70
    0
  9
$USERR1
 40
0
  9
$USERR2
 40
0
  9
$USERR3
 40
0
  9
$USERR4
 40
0
  9
$USERR5
 40
0
  9
$WORLDVIEW
 70
    1
  9
$SHADEDGE
 70
    3
  9
$SHADEDIF
 70
   70
  9
$TILEMODE
 70
    1
  9
$MAXACTVP
 70
   64
  9
$PINSBASE
 10
0
 20
0
 30
0
  9
$PLIMCHECK
 70
    0
  9
$PEXTMIN
 10
0
 20
0
 30
0
  9
$PEXTMAX
 10
0
 20
0
 30
0
  9
$PLIMMIN
 10
0
 20
0
  9
$PLIMMAX
 10
297
 20
210
  9
$UNITMODE
 70
    0
  9
$VISRETAIN
 70
    1
  9
$PLINEGEN
 70
    0
  9
$PSLTSCALE
 70
    1
  9
$TREEDEPTH
 70
 3020
  9
$CMLSTYLE
  2
Standard
  9
$CMLJUST
 70
    0
  9
$CMLSCALE
 40
20
  9
$PROXYGRAPHICS
 70
    1
  9
$MEASUREMENT
 70
    1
  9
$CELWEIGHT
370
   -1
  9
$ENDCAPS
280
    0
  9
$JOINSTYLE
280
    0
  9
$LWDISPLAY
290
    0
  9
$INSUNITS
 70
    0
  9
$HYPERLINKBASE
  1

  9
$STYLESHEET
  1

  9
$XEDIT
290
    1
  9
$CEPSNTYPE
380
    0
  9
$PSTYLEMODE
290
    1
  9
$EXTNAMES
290
    1
  9
$PSVPSCALE
 40
0
  9
$OLESTARTUP
290
    0
  9
$SORTENTS
280
  127
  9
$INDEXCTL
280
    0
  9
$HIDETEXT
280
    1
  9
$XCLIPFRAME
280
    0
  9
$HALOGAP
280
    0
  9
$OBSCOLOR
 70
  257
  9
$OBSLTYPE
280
    0
  9
$INTERSECTIONDISPLAY
280
    0
  9
$INTERSECTIONCOLOR
 70
  257
  9
$DIMASSOC
280
    1
  9
$PROJECTNAME
  1

  9
$CAMERADISPLAY
290
    0
  9
$LENSLENGTH
 40
50
  9
$CAMERAHEIGHT
 40
0
  9
$STEPSPERSEC
 40
2
  9
$STEPSIZE
 40
50
  9
$3DDWFPREC
 40
2
  9
$PSOLWIDTH
 40
5
  9
$PSOLHEIGHT
 40
80
  9
$LOFTANG1
 40
1.570796326794897
  9
$LOFTANG2
 40
1.570796326794897
  9
$LOFTMAG1
 40
0
  9
$LOFTMAG2
 40
0
  9
$LOFTPARAM
 70
    7
  9
$LOFTNORMALS
280
    1
  9
$LATITUDE
 40
1
  9
$LONGITUDE
 40
1
  9
$NORTHDIRECTION
 40
0
  9
$TIMEZONE
 70
-8000
  9
$LIGHTGLYPHDISPLAY
280
    1
  9
$TILEMODELIGHTSYNCH
280
    1
  9
$SOLIDHIST
280
    1
  9
$SHOWHIST
280
    1
  9
$DWFFRAME
280
    2
  9
$DGNFRAME
280
    0
  9
$REALWORLDSCALE
290
    1
  9
$INTERFERECOLOR
 62
    1
  9
$CSHADOW
280
    0
  9
$SHADOWPLANELOCATION
 40
0
  0
ENDSEC
  0
SECTION
  2
CLASSES
  0
ENDSEC
  0
SECTION
  2
TABLES
  0
TABLE
  2
VPORT
  5
8
330
0
100
AcDbSymbolTable
 70
    1
  0
VPORT
  5
31
330
2
100
AcDbSymbolTableRecord
100
AcDbViewportTableRecord
  2
*ACTIVE
 70
    0
 10
0
 20
0
 11
1
 21
1
 12
0.651828
 22
-0.16
 13
0
 23
0
 14
10
 24
10
 15
10
 25
10
 16
0
 26
0
 36
1
 17
0
 27
0
 37
0
 40
5.13732
 41
2.4426877
 42
50
 43
0
 44
0
 50
0
 51
0
 71
    0
 72
  100
 73
    1
 74
    3
 75
    0
 76
    0
 77
    0
 78
    0
281
    0
 65
    1
110
0
120
0
130
0
111
1
121
0
131
0
112
0
122
1
132
0
 79
    0
146
0
348
10020
 60
    7
 61
    5
292
1
282
    1
141
0
142
0
 63
  250
421
3358443
  0
ENDTAB
  0
TABLE
  2
LTYPE
  5
5
330
0
100
AcDbSymbolTable
 70
    4
  0
LTYPE
  5
14
330
5
100
AcDbSymbolTableRecord
100
AcDbLinetypeTableRecord
  2
ByBlock
 70
    0
  3

 72
   65
 73
    0
 40
0
  0
LTYPE
  5
15
330
5
100
AcDbSymbolTableRecord
100
AcDbLinetypeTableRecord
  2
ByLayer
 70
    0
  3

 72
   65
 73
    0
 40
0
  0
LTYPE
  5
16
330
5
100
AcDbSymbolTableRecord
100
AcDbLinetypeTableRecord
  2
Continuous
 70
    0
  3
Solid line
 72
   65
 73
    0
 40
0
  0
ENDTAB
  0
TABLE
  2
LAYER
  5
2
330
0
100
AcDbSymbolTable
 70
    1
  0
LAYER
  5
10
330
2
100
AcDbSymbolTableRecord
100
AcDbLayerTableRecord
  2
0
 70
    0
 62
    7
  6
CONTINUOUS
370
   -3
390
F
  0
ENDTAB
  0
TABLE
  2
STYLE
  5
3
330
0
100
AcDbSymbolTable
 70
    3
  0
STYLE
  5
32
330
2
100
AcDbSymbolTableRecord
100
AcDbTextStyleTableRecord
  2
Standard
 70
    0
 40
0
 41
1
 50
0
 71
    0
 42
1
  3
txt
  4

  0
ENDTAB
  0
TABLE
  2
VIEW
  5
6
330
0
100
AcDbSymbolTable
 70
    0
  0
ENDTAB
  0
TABLE
  2
UCS
  5
7
330
0
100
AcDbSymbolTable
 70
    0
  0
ENDTAB
  0
TABLE
  2
APPID
  5
9
330
0
100
AcDbSymbolTable
 70
    1
  0
APPID
  5
12
330
9
100
AcDbSymbolTableRecord
100
AcDbRegAppTableRecord
  2
ACAD
 70
    0
  0
ENDTAB
  0
TABLE
  2
DIMSTYLE
  5
A
330
0
100
AcDbSymbolTable
 70
    1
100
AcDbDimStyleTable
 71
    1
  0
DIMSTYLE
105
33
330
A
100
AcDbSymbolTableRecord
100
AcDbDimStyleTableRecord
  2
Standard
 70
    0
 40
1
 41
0.18
 42
0.0625
 43
0.38
 44
0.18
 45
0
 46
0
 47
0
 48
0
 49
1
140
0.18
141
0.09
142
0
143
25.4
144
1
145
0
146
1
147
0.09
148
0
 71
    0
 72
    0
 73
    0
 74
    1
 75
    0
 76
    0
 77
    0
 78
    0
 79
    0
170
    0
171
    2
172
    0
173
    0
174
    0
175
    0
176
    0
177
    0
178
    0
179
    0
271
    4
272
    4
273
    2
274
    2
275
    0
276
    0
277
    2
278
   46
279
    0
280
    0
281
    0
282
    0
283
    1
284
    0
285
    0
286
    0
288
    0
289
    3
340
Standard
341

371
   -2
372
   -2
  0
ENDTAB
  0
TABLE
  2
BLOCK_RECORD
  5
1
330
0
100
AcDbSymbolTable
 70
    2
  0
BLOCK_RECORD
  5
1F
330
1
100
AcDbSymbolTableRecord
100
AcDbBlockTableRecord
  2
*Model_Space
 70
    0
280
    1
281
    0
  0
BLOCK_RECORD
  5
1E
330
1
100
AcDbSymbolTableRecord
100
AcDbBlockTableRecord
  2
*Paper_Space
 70
    0
280
    1
281
    0
  0
ENDTAB
  0
ENDSEC
  0
SECTION
  2
BLOCKS
  0
BLOCK
  5
20
330
1F
100
AcDbEntity
  8
0
100
AcDbBlockBegin
  2
*Model_Space
 70
    0
 10
0
 20
0
 30
0
  3
*Model_Space
  1

  0
ENDBLK
  5
21
330
1F
100
AcDbEntity
  8
0
100
AcDbBlockEnd
  0
BLOCK
  5
1C
330
1B
100
AcDbEntity
  8
0
100
AcDbBlockBegin
  2
*Paper_Space
 70
    0
 10
0
 20
0
 30
0
  3
*Paper_Space
  1

  0
ENDBLK
  5
1D
330
1F
100
AcDbEntity
  8
0
100
AcDbBlockEnd
  0
ENDSEC
  0
SECTION
  2
ENTITIES
  0
LWPOLYLINE
  5
34
100
AcDbEntity
  8
SketchLayer
  6
BYLAYER
 62
    4
370
   -1
100
AcDbPolyline
 90
   86
 70
    0
 43
0
 10
0
 20
0
 10
5.000000000000016
 20
0
 10
9.975923557591063
 20
0.4900864709522735
 10
14.76062501322347
 20
1.941510592451274
 10
19.17023181555281
 20
4.298493377464943
 10
23.03528411536402
 20
7.470459758075572
 10
26.57081802129668
 20
11.00599366400839
 10
30.72816607143105
 20
13.78384484613531
 10
35.63209285597792
 20
14.75929453310218
 10
40.63209285597792
 20
14.75929453310218
 10
45.53601964052479
 20
13.78384484613531
 10
49.69336769065917
 20
11.00599366400839
 10
53.22890159659182
 20
7.470459758075576
 10
57.09395389640303
 20
4.298493377464945
 10
61.50356069873236
 20
1.941510592451275
 10
66.28826215436477
 20
0.4900864709522752
 10
71.26418571195582
 20
1.734730353221391e-15
 10
76.264185711956
 20
1.734730353221391e-15
 10
77.28029474026459
 20
1.734730353221391e-15
 10
82.28029474026459
 20
1.734730353221391e-15
 10
83.29640376857377
 20
1.734730353221391e-15
 10
88.29640376857375
 20
1.734730353221391e-15
 10
89.31251279688293
 20
1.734730353221391e-15
 10
94.3125127968829
 20
1.734730353221391e-15
 10
95.32861682517226
 20
1.734730353221391e-15
 10
100.3286168251723
 20
1.734730353221391e-15
 10
101.3447208534616
 20
1.734730353221391e-15
 10
106.3447208534616
 20
1.734730353221391e-15
 10
107.360824881751
 20
1.734730353221391e-15
 10
112.3608248817509
 20
1.734730353221391e-15
 10
113.3769339100601
 20
1.734730353221391e-15
 10
118.3769339100601
 20
1.734730353221391e-15
 10
119.3930429383693
 20
1.734730353221391e-15
 10
124.3930429383693
 20
1.734730353221391e-15
 10
129.324536046097
 20
0.8248489124887738
 10
133.719187419568
 20
3.209600326294792
 10
137.0985964859148
 20
6.894650442954393
 10
139.0948787992369
 20
11.47884687477506
 10
140.3075569244185
 20
16.32955937550172
 10
142.3038424777062
 20
20.91375439641164
 10
145.6832502084776
 20
24.59880573787242
 10
150.0779016762715
 20
26.98355697785892
 10
155.0093947212102
 20
27.80840626574227
 10
160.0093947212102
 20
27.80840626574227
 10
164.9408877661488
 20
26.98355697785892
 10
169.3355392339427
 20
24.59880573787242
 10
172.7149469647142
 20
20.91375439641164
 10
174.7112325180018
 20
16.32955937550172
 10
175.9239106431835
 20
11.47884687477506
 10
177.9201929565056
 20
6.894650442954393
 10
181.2996020228524
 20
3.209600326294788
 10
185.6942533963233
 20
0.8248489124887723
 10
190.625746504051
 20
-5.551137130308452e-16
 10
195.6257465040511
 20
-5.551137130308452e-16
 10
196.6418555323602
 20
-5.551137130308452e-16
 10
201.6418555323602
 20
-5.551137130308452e-16
 10
202.6579645606694
 20
-5.551137130308452e-16
 10
207.6579645606691
 20
-5.551137130308452e-16
 10
208.6740685889579
 20
-5.551137130308452e-16
 10
213.6740685889579
 20
-5.551137130308452e-16
 10
214.6901726172467
 20
-5.551137130308452e-16
 10
219.6901726172467
 20
-5.551137130308452e-16
 10
220.7062766455355
 20
-5.551137130308452e-16
 10
225.7062766455356
 20
-5.551137130308452e-16
 10
226.7223856738436
 20
-5.551137130308452e-16
 10
231.7223856738436
 20
-5.551137130308452e-16
 10
232.7384947021516
 20
-5.551137130308452e-16
 10
237.7384947021516
 20
-5.551137130308452e-16
 10
238.7546037304596
 20
-5.551137130308452e-16
 10
243.7546037304595
 20
-5.551137130308452e-16
 10
248.7305272880506
 20
0.4900864709523505
 10
253.515228743683
 20
1.941510592451358
 10
257.9248355460125
 20
4.298493377464712
 10
261.7898878458234
 20
7.470459758075709
 10
265.3254217517561
 20
11.00599366400852
 10
269.4827698018908
 20
13.78384484613501
 10
274.3866965864376
 20
14.75929453310224
 10
279.3866965864376
 20
14.75929453310224
 10
284.2906233709843
 20
13.78384484613501
 10
288.447971421119
 20
11.00599366400852
 10
291.9835053270517
 20
7.470459758075709
 10
295.8485576268626
 20
4.298493377464712
 10
300.2581644291921
 20
1.941510592451357
 10
305.0428658848245
 20
0.4900864709523501
 10
310.0187894424156
 20
3.677628348829349e-15
 10
315.0187894424156
 20
3.677628348829349e-15
  0
LWPOLYLINE
  5
35
100
AcDbEntity
  8
SketchLayer
  6
BYLAYER
 62
    2
370
   -1
100
AcDbPolyline
 90
   86
 70
    0
 43
0
 10
0
 20
1.000003964461587
 10
5.000000000000016
 20
1.000003964461587
 10
9.780832784163405
 20
1.470875359236731
 10
14.37794349610314
 20
2.865394255138045
 10
18.61465961301667
 20
5.129966673795818
 10
22.32817631207323
 20
8.177567561366182
 10
25.86371021800588
 20
11.713101467299
 10
30.34547955429148
 20
14.70772350880226
 10
35.63209285597792
 20
15.75929849756377
 10
40.63209285597792
 20
15.75929849756377
 10
45.91870615766435
 20
14.70772350880226
 10
50.40047549394995
 20
11.713101467299
 10
53.93600939988261
 20
8.177567561366185
 10
57.64952609893917
 20
5.12996667379582
 10
61.88624221585269
 20
2.865394255138046
 10
66.48335292779242
 20
1.470875359236732
 10
71.26418571195582
 20
1.000003964461588
 10
77.28029474026459
 20
1.000003964461588
 10
76.264185711956
 20
1.000003964461588
 10
82.28029474026459
 20
1.000003964461588
 10
83.29640376857377
 20
1.000003964461588
 10
88.29640376857375
 20
1.000003964461588
 10
89.31251279688293
 20
1.000003964461588
 10
94.3125127968829
 20
1.000003964461588
 10
95.32861682517226
 20
1.000003964461588
 10
100.3286168251723
 20
1.000003964461588
 10
101.3447208534616
 20
1.000003964461588
 10
106.3447208534616
 20
1.000003964461588
 10
107.360824881751
 20
1.000003964461588
 10
113.3769339100601
 20
1.000003964461588
 10
112.3608248817509
 20
1.000003964461588
 10
118.3769339100601
 20
1.000003964461588
 10
119.3930429383693
 20
1.000003964461588
 10
124.3930429383693
 20
1.000003964461588
 10
128.9991147559816
 20
1.770422661164715
 10
133.1037749797983
 20
3.997808451103237
 10
136.2601831620705
 20
7.439692603744537
 10
138.1247349531547
 20
11.72138283629576
 10
139.3374130783352
 20
16.57209533702241
 10
141.4654241538415
 20
21.45879155718198
 10
145.067837768708
 20
25.38701386268086
 10
149.7524803861561
 20
27.92913072653488
 10
155.0093947212102
 20
28.80841023020388
 10
160.0093947212102
 20
28.80841023020388
 10
165.2663090562643
 20
27.92913072653488
 10
169.9509516737124
 20
25.38701386268086
 10
173.5533652885789
 20
21.45879155718198
 10
175.6813763640851
 20
16.57209533702241
 10
176.8940544892657
 20
11.72138283629576
 10
178.7586062803499
 20
7.439692603744515
 10
181.915014462622
 20
3.997808451103259
 10
186.0196746864387
 20
1.770422661164733
 10
190.625746504051
 20
1.0000039644616
 10
195.6257465040511
 20
1.0000039644616
 10
196.6418555323602
 20
1.0000039644616
 10
201.6418555323602
 20
1.0000039644616
 10
202.6579645606694
 20
1.0000039644616
 10
208.6740685889579
 20
1.0000039644616
 10
207.6579645606691
 20
1.0000039644616
 10
213.6740685889579
 20
1.0000039644616
 10
214.6901726172467
 20
1.0000039644616
 10
219.6901726172467
 20
1.0000039644616
 10
220.7062766455355
 20
1.0000039644616
 10
225.7062766455356
 20
1.0000039644616
 10
226.7223856738436
 20
1.0000039644616
 10
231.7223856738436
 20
1.0000039644616
 10
232.7384947021516
 20
1.0000039644616
 10
237.7384947021516
 20
1.0000039644616
 10
238.7546037304596
 20
1.0000039644616
 10
243.7546037304595
 20
1.0000039644616
 10
248.5354365146218
 20
1.470875359236805
 10
253.1325472265627
 20
2.865394255138126
 10
257.3692633434752
 20
5.12996667379559
 10
261.0827800425338
 20
8.177567561366288
 10
264.6183139484642
 20
11.71310146729914
 10
269.1000832847512
 20
14.70772350880197
 10
274.3866965864376
 20
15.75929849756384
 10
279.3866965864376
 20
15.75929849756384
 10
284.6733098881239
 20
14.70772350880197
 10
289.1550792244109
 20
11.71310146729914
 10
292.6906131303413
 20
8.177567561366288
 10
296.4041298293999
 20
5.12996667379559
 10
300.6408459463124
 20
2.865394255138125
 10
305.2379566582533
 20
1.470875359236805
 10
310.0187894424156
 20
1.000003964461605
 10
315.0187894424156
 20
1.000003964461605
  0
LWPOLYLINE
  5
36
100
AcDbEntity
  8
SketchLayer
  6
BYLAYER
 62
    4
370
   -1
100
AcDbPolyline
 90
   86
 70
    0
 43
0
 10
0
 20
2.000007928923173
 10
5.000000000000016
 20
2.000007928923173
 10
9.585742010736885
 20
2.451664247521188
 10
13.99525697896358
 20
3.789272917804994
 10
18.05908741048053
 20
5.961439970126693
 10
21.62106850878243
 20
8.884680364676612
 10
25.15659741469585
 20
12.42020927058961
 10
29.96279303715192
 20
15.63160717148903
 10
35.63209285597792
 20
16.75930246202535
 10
40.63209285597792
 20
16.75930246202535
 10
46.30139267480392
 20
15.63160717148903
 10
51.10758829725999
 20
12.42020927058961
 10
54.6431172031734
 20
8.884680364676615
 10
58.20509830147531
 20
5.961439970126695
 10
62.26892873299226
 20
3.789272917804996
 10
66.67844370121894
 20
2.45166424752119
 10
71.26418571195582
 20
2.000007928923175
 10
76.264185711956
 20
2.000007928923175
 10
77.28029474026459
 20
2.000007928923175
 10
82.28029474026459
 20
2.000007928923175
 10
83.29640376857377
 20
2.000007928923175
 10
88.29640376857375
 20
2.000007928923175
 10
89.31251279688293
 20
2.000007928923175
 10
94.3125127968829
 20
2.000007928923175
 10
95.32861682517226
 20
2.000007928923175
 10
100.3286168251723
 20
2.000007928923175
 10
101.3447208534616
 20
2.000007928923175
 10
106.3447208534616
 20
2.000007928923175
 10
107.360824881751
 20
2.000007928923175
 10
112.3608248817509
 20
2.000007928923175
 10
113.3769339100601
 20
2.000007928923175
 10
118.3769339100601
 20
2.000007928923175
 10
119.3930429383693
 20
2.000007928923175
 10
124.3930429383693
 20
2.000007928923175
 10
128.6736984658865
 20
2.715996409840659
 10
132.4883575400094
 20
4.786016575911681
 10
135.4217648382069
 20
7.984729764514858
 10
137.1545861070521
 20
11.96391879781644
 10
138.3672642322326
 20
16.81463129854311
 10
140.6270108299971
 20
22.00383371797214
 10
144.4524203289191
 20
26.17522698750911
 10
149.4270590960418
 20
28.87470447521084
 10
155.0093947212102
 20
29.80841419466547
 10
160.0093947212102
 20
29.80841419466547
 10
165.5917303463786
 20
28.87470447521084
 10
170.5663691135013
 20
26.17522698750911
 10
174.3917786124232
 20
22.00383371797214
 10
176.6515252101877
 20
16.81463129854311
 10
177.8642033353683
 20
11.96391879781645
 10
179.5970246042134
 20
7.984729764514863
 10
182.5304319024109
 20
4.786016575911695
 10
186.3450909765338
 20
2.715996409840657
 10
190.625746504051
 20
2.000007928923166
 10
195.6257465040511
 20
2.000007928923166
 10
196.6418555323602
 20
2.000007928923166
 10
201.6418555323602
 20
2.000007928923166
 10
202.6579645606694
 20
2.000007928923166
 10
207.6579645606691
 20
2.000007928923166
 10
208.6740685889579
 20
2.000007928923166
 10
213.6740685889579
 20
2.000007928923166
 10
214.6901726172467
 20
2.000007928923166
 10
219.6901726172467
 20
2.000007928923166
 10
220.7062766455355
 20
2.000007928923166
 10
225.7062766455356
 20
2.000007928923166
 10
226.7223856738436
 20
2.000007928923166
 10
231.7223856738436
 20
2.000007928923166
 10
232.7384947021516
 20
2.000007928923166
 10
237.7384947021516
 20
2.000007928923166
 10
238.7546037304596
 20
2.000007928923166
 10
243.7546037304595
 20
2.000007928923166
 10
248.3403457411976
 20
2.45166424752126
 10
252.7498607094231
 20
3.789272917805083
 10
256.8136911409379
 20
5.961439970126468
 10
260.3756722392419
 20
8.884680364676749
 10
263.9112011451552
 20
12.42020927058976
 10
268.7173967676116
 20
15.63160717148874
 10
274.3866965864376
 20
16.75930246202541
 10
279.3866965864376
 20
16.75930246202541
 10
285.0559964052635
 20
15.63160717148874
 10
289.8621920277199
 20
12.42020927058976
 10
293.3977209336333
 20
8.884680364676749
 10
296.9597020319372
 20
5.961439970126468
 10
301.023532463452
 20
3.789272917805083
 10
305.4330474316776
 20
2.45166424752126
 10
310.0187894424156
 20
2.00000792892317
 10
315.0187894424156
 20
2.00000792892317
  0
LWPOLYLINE
  5
37
100
AcDbEntity
  8
SketchLayer
  6
BYLAYER
 62
    2
370
   -1
100
AcDbPolyline
 90
   86
 70
    0
 43
0
 10
0
 20
3.000011893384761
 10
5.000000000000016
 20
3.000011893384761
 10
9.390651237310365
 20
3.432453135805646
 10
13.61257046182401
 20
4.713156580491763
 10
17.50351520794439
 20
6.792913266457568
 10
20.9139557054724
 20
9.591788167967223
 10
24.44948961140506
 20
13.12732207390004
 10
29.58011152003159
 20
16.5554908341758
 10
35.63209285597792
 20
17.75930642648694
 10
40.63209285597792
 20
17.75930642648694
 10
46.68407419192425
 20
16.5554908341758
 10
51.81469610055078
 20
13.12732207390005
 10
55.35023000648344
 20
9.591788167967227
 10
58.76067050401145
 20
6.79291326645757
 10
62.65161525013182
 20
4.713156580491765
 10
66.87353447464547
 20
3.432453135805647
 10
71.26418571195582
 20
3.000011893384762
 10
77.28029474026459
 20
3.000011893384762
 10
76.264185711956
 20
3.000011893384762
 10
82.28029474026459
 20
3.000011893384762
 10
83.29640376857377
 20
3.000011893384762
 10
88.29640376857375
 20
3.000011893384762
 10
89.31251279688293
 20
3.000011893384762
 10
94.3125127968829
 20
3.000011893384762
 10
95.32861682517226
 20
3.000011893384762
 10
100.3286168251723
 20
3.000011893384762
 10
101.3447208534616
 20
3.000011893384762
 10
106.3447208534616
 20
3.000011893384762
 10
107.360824881751
 20
3.000011893384762
 10
113.3769339100601
 20
3.000011893384762
 10
112.3608248817509
 20
3.000011893384762
 10
118.3769339100601
 20
3.000011893384762
 10
119.3930429383693
 20
3.000011893384762
 10
124.3930429383693
 20
3.000011893384762
 10
128.3482771757711
 20
3.661570158516601
 10
131.8729451002398
 20
5.574224700720124
 10
134.5833515143626
 20
8.529771925304999
 10
136.1844422609688
 20
12.20645475933714
 10
137.3971203861504
 20
17.0571672600638
 10
139.7885925061336
 20
22.54887087874242
 10
143.8370078891494
 20
26.96343511231754
 10
149.1016378059263
 20
29.82027822388673
 10
155.0093947212102
 20
30.808418159127
 10
160.0093947212102
 20
30.808418159127
 10
165.917151636494
 20
29.82027822388673
 10
171.1817815532709
 20
26.96343511231754
 10
175.2301969362867
 20
22.54887087874242
 10
177.62166905627
 20
17.0571672600638
 10
178.8343471814516
 20
12.20645475933715
 10
180.4354379280577
 20
8.529771925304985
 10
183.1458443421805
 20
5.574224700720131
 10
186.6705122666493
 20
3.661570158516618
 10
190.625746504051
 20
3.000011893384767
 10
195.6257465040511
 20
3.000011893384767
 10
196.6418555323602
 20
3.000011893384767
 10
201.6418555323602
 20
3.000011893384767
 10
202.6579645606694
 20
3.000011893384767
 10
208.6740685889579
 20
3.000011893384767
 10
207.6579645606691
 20
3.000011893384767
 10
213.6740685889579
 20
3.000011893384767
 10
214.6901726172467
 20
3.000011893384767
 10
219.6901726172467
 20
3.000011893384767
 10
220.7062766455355
 20
3.000011893384767
 10
225.7062766455356
 20
3.000011893384767
 10
226.7223856738436
 20
3.000011893384767
 10
231.7223856738436
 20
3.000011893384767
 10
232.7384947021516
 20
3.000011893384767
 10
237.7384947021516
 20
3.000011893384767
 10
238.7546037304596
 20
3.000011893384767
 10
243.7546037304595
 20
3.000011893384767
 10
248.1452549677688
 20
3.432453135805715
 10
252.3671741922836
 20
4.713156580491852
 10
256.258118938403
 20
6.792913266457347
 10
259.6685594359329
 20
9.59178816796733
 10
263.2040933418633
 20
13.12732207390018
 10
268.334715250489
 20
16.5554908341755
 10
274.3866965864376
 20
17.75930642648701
 10
279.3866965864376
 20
17.75930642648701
 10
285.4386779223861
 20
16.5554908341755
 10
290.5692998310118
 20
13.12732207390018
 10
294.1048337369422
 20
9.59178816796733
 10
297.5152742344721
 20
6.792913266457347
 10
301.4062189805916
 20
4.713156580491852
 10
305.6281382051063
 20
3.432453135805714
 10
310.0187894424156
 20
3.000011893384771
 10
315.0187894424156
 20
3.000011893384771
  0
LWPOLYLINE
  5
38
100
AcDbEntity
  8
SketchLayer
  6
BYLAYER
 62
    4
370
   -1
100
AcDbPolyline
 90
   26
 70
    0
 43
0
 10
113.3769339100601
 20
4.000015857846349
 10
118.3769339100601
 20
4.000015857846349
 10
119.3930429383693
 20
4.000015857846349
 10
124.3930429383693
 20
4.000015857846349
 10
128.0228558856568
 20
4.607143907192544
 10
131.2575276604509
 20
6.362432825528571
 10
133.7449331904991
 20
9.074809086075319
 10
135.2142934148661
 20
12.44899572087765
 10
136.4269715400478
 20
17.2997082216043
 10
138.9501791822893
 20
23.09390803951277
 10
143.2215904493606
 20
27.75164323712598
 10
148.7762215158313
 20
30.76585197256269
 10
155.0093947212102
 20
31.80842212358861
 10
160.0093947212102
 20
31.80842212358861
 10
166.2425679265891
 20
30.76585197256269
 10
171.7971989930598
 20
27.75164323712598
 10
176.068610260131
 20
23.09390803951277
 10
178.5918179023725
 20
17.2997082216043
 10
179.8044960275542
 20
12.44899572087765
 10
181.2738562519213
 20
9.074809086075298
 10
183.7612617819694
 20
6.362432825528566
 10
186.9959335567636
 20
4.607143907192543
 10
190.625746504051
 20
4.000015857846368
 10
195.6257465040511
 20
4.000015857846368
 10
196.6418555323602
 20
4.000015857846368
 10
201.6418555323602
 20
4.000015857846368
  0
LWPOLYLINE
  5
39
100
AcDbEntity
  8
SketchLayer
  6
BYLAYER
 62
    4
370
   -1
100
AcDbPolyline
 90
   10
 70
    0
 43
0
 10
77.28029474026516
 20
4.000015857846349
 10
82.28029474026459
 20
4.000015857846349
 10
83.29640376857377
 20
4.000015857846349
 10
88.29640376857375
 20
4.000015857846349
 10
89.31251279688293
 20
4.000015857846349
 10
94.3125127968829
 20
4.000015857846349
 10
95.32861682517226
 20
4.000015857846349
 10
100.3286168251723
 20
4.000015857846349
 10
101.3447208534616
 20
4.000015857846349
 10
106.3447208534616
 20
4.000015857846349
  0
LWPOLYLINE
  5
3A
100
AcDbEntity
  8
SketchLayer
  6
BYLAYER
 62
    2
370
   -1
100
AcDbPolyline
 90
   26
 70
    0
 43
0
 10
113.3769339100601
 20
5.000019822307936
 10
118.3769339100601
 20
5.000019822307936
 10
119.3930429383693
 20
5.000019822307936
 10
124.3930429383693
 20
5.000019822307936
 10
127.6974345955413
 20
5.552717655868486
 10
130.6421152206813
 20
7.150640950337015
 10
132.9065198666548
 20
9.619846246845643
 10
134.2441495687839
 20
12.69153168239834
 10
135.4568276939645
 20
17.542244183125
 10
138.1117608584246
 20
23.63895020030292
 10
142.6061780095909
 20
28.53985136193441
 10
148.4508002257158
 20
31.71142572123865
 10
155.0093947212102
 20
32.8084260880502
 10
160.0093947212102
 20
32.8084260880502
 10
166.5679892167045
 20
31.71142572123865
 10
172.4126114328294
 20
28.53985136193441
 10
176.9070285839957
 20
23.63895020030292
 10
179.5619617484559
 20
17.542244183125
 10
180.7746398736364
 20
12.69153168239835
 10
182.1122695757656
 20
9.619846246845645
 10
184.3766742217391
 20
7.150640950337002
 10
187.321354846879
 20
5.552717655868503
 10
190.625746504051
 20
5.000019822307933
 10
195.6257465040511
 20
5.000019822307933
 10
196.6418555323602
 20
5.000019822307933
 10
201.6418555323602
 20
5.000019822307933
  0
LWPOLYLINE
  5
3B
100
AcDbEntity
  8
SketchLayer
  6
BYLAYER
 62
    4
370
   -1
100
AcDbPolyline
 90
   10
 70
    0
 43
0
 10
208.6740685889579
 20
4.000015857846368
 10
213.6740685889579
 20
4.000015857846368
 10
214.6901726172467
 20
4.000015857846368
 10
219.6901726172467
 20
4.000015857846368
 10
220.7062766455355
 20
4.000015857846368
 10
225.7062766455356
 20
4.000015857846368
 10
226.7223856738436
 20
4.000015857846368
 10
231.7223856738436
 20
4.000015857846368
 10
232.7384947021516
 20
4.000015857846368
 10
237.7384947021516
 20
4.000015857846368
  0
LWPOLYLINE
  5
3C
100
AcDbEntity
  8
SketchLayer
  6
BYLAYER
 62
    4
370
   -1
100
AcDbPolyline
 90
   86
 70
    0
 43
0
 10
0
 20
4.000015857846347
 10
5.000000000000016
 20
4.000015857846347
 10
9.195560463883846
 20
4.413242024090104
 10
13.22988894470369
 20
5.637040243178534
 10
16.94794300540825
 20
7.624386562788445
 10
20.2068479021816
 20
10.29890097127766
 10
23.74238180811426
 20
13.83442987719065
 10
29.19742500289204
 20
17.47937449686257
 10
35.63209285597792
 20
18.75931039094853
 10
40.63209285597792
 20
18.75931039094853
 10
47.06676070906381
 20
17.47937449686257
 10
52.52180390384158
 20
13.83442987719065
 10
56.05733780977423
 20
10.29890097127766
 10
59.31624270654758
 20
7.624386562788447
 10
63.03429676725214
 20
5.637040243178535
 10
67.06862524807198
 20
4.413242024090105
 10
71.26418571195582
 20
4.000015857846349
 10
76.264185711956
 20
4.000015857846349
 10
77.28029474026516
 20
5.000019822307936
 10
82.28029474026459
 20
5.000019822307936
 10
83.29640376857377
 20
5.000019822307936
 10
88.29640376857375
 20
5.000019822307936
 10
89.31251279688293
 20
5.000019822307936
 10
94.3125127968829
 20
5.000019822307936
 10
95.32861682517226
 20
5.000019822307936
 10
100.3286168251723
 20
5.000019822307936
 10
101.3447208534616
 20
5.000019822307936
 10
106.3447208534616
 20
5.000019822307936
 10
107.360824881751
 20
4.000015857846349
 10
112.3608248817509
 20
4.000015857846349
 10
113.3769339100601
 20
6.000023786769521
 10
118.3769339100601
 20
6.000023786769521
 10
119.3930429383693
 20
6.000023786769521
 10
124.3930429383693
 20
6.000023786769521
 10
127.3720183054463
 20
6.498291404544429
 10
130.0266977808924
 20
7.93884907514546
 10
132.0681015427901
 20
10.16488840763579
 10
133.2740007226814
 20
12.93406764391903
 10
134.4866788478619
 20
17.78478014464569
 10
137.2733475345803
 20
24.1839873610732
 10
141.990760569802
 20
29.32805948674285
 10
148.1253789356015
 20
32.65699946991462
 10
155.0093947212102
 20
33.80843005251181
 10
160.0093947212102
 20
33.80843005251181
 10
166.8934105068188
 20
32.65699946991462
 10
173.0280288726183
 20
29.32805948674285
 10
177.74544190784
 20
24.1839873610732
 10
180.5321105945585
 20
17.78478014464569
 10
181.744788719739
 20
12.93406764391904
 10
182.9506878996303
 20
10.16488840763577
 10
184.992091661528
 20
7.938849075145473
 10
187.6467711369741
 20
6.498291404544428
 10
190.625746504051
 20
6.000023786769535
 10
195.6257465040511
 20
6.000023786769535
 10
196.6418555323602
 20
6.000023786769535
 10
201.6418555323602
 20
6.000023786769535
 10
202.6579645606694
 20
4.000015857846368
 10
207.6579645606691
 20
4.000015857846368
 10
208.6740685889579
 20
5.000019822307933
 10
213.6740685889579
 20
5.000019822307933
 10
214.6901726172467
 20
5.000019822307933
 10
219.6901726172467
 20
5.000019822307933
 10
220.7062766455355
 20
5.000019822307933
 10
225.7062766455356
 20
5.000019822307933
 10
226.7223856738436
 20
5.000019822307933
 10
231.7223856738436
 20
5.000019822307933
 10
232.7384947021516
 20
5.000019822307933
 10
237.7384947021516
 20
5.000019822307933
 10
238.7546037304596
 20
4.000015857846368
 10
243.7546037304595
 20
4.000015857846368
 10
247.9501641943445
 20
4.413242024090169
 10
251.9844926751632
 20
5.637040243178618
 10
255.7025467358679
 20
7.624386562788226
 10
258.961451632641
 20
10.29890097127779
 10
262.4969855385737
 20
13.8344298771908
 10
267.9520287333494
 20
17.47937449686231
 10
274.3866965864376
 20
18.75931039094861
 10
279.3866965864376
 20
18.75931039094861
 10
285.8213644395257
 20
17.47937449686231
 10
291.2764076343014
 20
13.8344298771908
 10
294.8119415402341
 20
10.29890097127779
 10
298.0708464370072
 20
7.624386562788226
 10
301.7889004977119
 20
5.637040243178618
 10
305.8232289785306
 20
4.413242024090169
 10
310.0187894424156
 20
4.000015857846372
 10
315.0187894424156
 20
4.000015857846372
  0
LWPOLYLINE
  5
3D
100
AcDbEntity
  8
SketchLayer
  6
BYLAYER
 62
    2
370
   -1
100
AcDbPolyline
 90
   86
 70
    0
 43
0
 10
0
 20
5.000019822307934
 10
5.000000000000016
 20
5.000019822307934
 10
9.000469690456189
 20
5.39403091237456
 10
12.84720242756299
 20
6.560923905865305
 10
16.39237080287325
 20
8.455859859119322
 10
19.49974009889081
 20
11.00600877456827
 10
23.03526900480423
 20
14.54153768048126
 10
28.81473848575133
 20
18.40325815954934
 10
35.63209285597792
 20
19.75931435541012
 10
40.63209285597792
 20
19.75931435541012
 10
47.44944722620451
 20
18.40325815954935
 10
53.22891670715161
 20
14.54153768048127
 10
56.76444561306503
 20
11.00600877456827
 10
59.87181490908259
 20
8.455859859119323
 10
63.41698328439285
 20
6.560923905865306
 10
67.26371602149965
 20
5.394030912374561
 10
71.26418571195582
 20
5.000019822307936
 10
76.264185711956
 20
5.000019822307936
 10
77.28029474026516
 20
6.000023786769521
 10
82.28029474026459
 20
6.000023786769521
 10
83.29640376857377
 20
6.000023786769521
 10
88.29640376857375
 20
6.000023786769521
 10
89.31251279688293
 20
6.000023786769521
 10
94.3125127968829
 20
6.000023786769521
 10
95.32861682517226
 20
6.000023786769521
 10
100.3286168251723
 20
6.000023786769521
 10
101.3447208534616
 20
6.000023786769521
 10
106.3447208534616
 20
6.000023786769521
 10
107.360824881751
 20
5.000019822307936
 10
112.3608248817509
 20
5.000019822307936
 10
113.3769339100601
 20
7.000027751231109
 10
118.3769339100601
 20
7.000027751231109
 10
119.3930429383693
 20
7.000027751231109
 10
124.3930429383693
 20
7.000027751231109
 10
127.0465970153308
 20
7.443865153220372
 10
129.4112853411227
 20
8.727057199953904
 10
131.2296882189458
 20
10.70992556840611
 10
132.303856876598
 20
13.17660360543972
 10
133.5165350017797
 20
18.02731610616639
 10
136.434934210736
 20
24.72902952186336
 10
141.3753481300324
 20
30.11626761155135
 10
147.7999626455053
 20
33.6025732185905
 10
155.0093947212102
 20
34.80843401697341
 10
160.0093947212102
 20
34.80843401697341
 10
167.218826796915
 20
33.6025732185905
 10
173.6434413123879
 20
30.11626761155135
 10
178.5838552316843
 20
24.72902952186336
 10
181.5022544406407
 20
18.02731610616639
 10
182.7149325658224
 20
13.1766036054397
 10
183.7891012234746
 20
10.70992556840612
 10
185.6075041012976
 20
8.72705719995391
 10
187.9721924270895
 20
7.443865153220388
 10
190.625746504051
 20
7.0000277512311
 10
195.6257465040511
 20
7.0000277512311
 10
196.6418555323602
 20
7.0000277512311
 10
201.6418555323602
 20
7.0000277512311
 10
202.6579645606694
 20
5.000019822307933
 10
207.6579645606691
 20
5.000019822307933
 10
208.6740685889579
 20
6.000023786769535
 10
213.6740685889579
 20
6.000023786769535
 10
214.6901726172467
 20
6.000023786769535
 10
219.6901726172467
 20
6.000023786769535
 10
220.7062766455355
 20
6.000023786769535
 10
225.7062766455356
 20
6.000023786769535
 10
226.7223856738436
 20
6.000023786769535
 10
231.7223856738436
 20
6.000023786769535
 10
232.7384947021516
 20
6.000023786769535
 10
237.7384947021516
 20
6.000023786769535
 10
238.7546037304596
 20
5.000019822307933
 10
243.7546037304595
 20
5.000019822307933
 10
247.7550734209157
 20
5.394030912374625
 10
251.6018061580237
 20
6.560923905865386
 10
255.1469745333306
 20
8.455859859119105
 10
258.2543438293491
 20
11.00600877456841
 10
261.7898727352625
 20
14.54153768048141
 10
267.5693422162099
 20
18.40325815954908
 10
274.3866965864376
 20
19.75931435541018
 10
279.3866965864376
 20
19.75931435541018
 10
286.2040509566652
 20
18.40325815954908
 10
291.9835204376126
 20
14.54153768048141
 10
295.519049343526
 20
11.00600877456841
 10
298.6264186395445
 20
8.455859859119105
 10
302.1715870148515
 20
6.560923905865386
 10
306.0183197519594
 20
5.394030912374625
 10
310.0187894424156
 20
5.000019822307937
 10
315.0187894424156
 20
5.000019822307937
  0
LWPOLYLINE
  5
3E
100
AcDbEntity
  8
SketchLayer
  6
BYLAYER
 62
    4
370
   -1
100
AcDbPolyline
 90
   22
 70
    0
 43
0
 10
119.3930429383693
 20
8.000031715692696
 10
124.3930429383693
 20
8.000031715692696
 10
126.7211757252154
 20
8.389438901896312
 10
128.7958679013339
 20
9.515265324762352
 10
130.3912748951015
 20
11.25496272917643
 10
131.3337080304954
 20
13.41913956696041
 10
132.5463861556771
 20
18.26985206768708
 10
135.5965158868725
 20
25.27406668263371
 10
140.7599356902639
 20
30.90447573635979
 10
147.474541355391
 20
34.54814696726646
 10
155.0093947212102
 20
35.80843798143494
 10
160.0093947212102
 20
35.80843798143494
 10
167.5442480870293
 20
34.54814696726646
 10
174.2588537521565
 20
30.90447573635979
 10
179.4222735555479
 20
25.27406668263371
 10
182.4724032867433
 20
18.26985206768708
 10
183.685081411925
 20
13.41913956696039
 10
184.6275145473189
 20
11.25496272917643
 10
186.2229215410865
 20
9.515265324762344
 10
188.2976137172049
 20
8.389438901896312
 10
190.625746504051
 20
8.000031715692701
 10
195.6257465040511
 20
8.000031715692701
  0
LWPOLYLINE
  5
3F
100
AcDbEntity
  8
SketchLayer
  6
BYLAYER
 62
    4
370
   -1
100
AcDbPolyline
 90
    6
 70
    0
 43
0
 10
83.29640376857377
 20
7.000027751231109
 10
88.29640376857375
 20
7.000027751231109
 10
89.31251279688293
 20
7.000027751231109
 10
94.3125127968829
 20
7.000027751231109
 10
95.32861682517226
 20
7.000027751231109
 10
100.3286168251723
 20
7.000027751231109
  0
LWPOLYLINE
  5
40
100
AcDbEntity
  8
SketchLayer
  6
BYLAYER
 62
    2
370
   -1
100
AcDbPolyline
 90
   22
 70
    0
 43
0
 10
119.3930429383693
 20
9.000035680154282
 10
124.3930429383693
 20
9.000035680154282
 10
126.3957544351011
 20
9.335012650572253
 10
128.1804554615642
 20
10.3034734495708
 10
129.552856571238
 20
11.80000488996657
 10
130.3635641844132
 20
13.66167552848111
 10
131.5762423095937
 20
18.51238802920771
 10
134.7581025630282
 20
25.81910384340398
 10
140.144518250475
 20
31.69268386116823
 10
147.1491200652756
 20
35.49372071594242
 10
155.0093947212102
 20
36.80844194589654
 10
160.0093947212102
 20
36.80844194589654
 10
167.8696693771448
 20
35.49372071594242
 10
174.8742711919453
 20
31.69268386116823
 10
180.2606868793922
 20
25.81910384340398
 10
183.4425471328266
 20
18.51238802920771
 10
184.6552252580072
 20
13.66167552848109
 10
185.4659328711824
 20
11.80000488996655
 10
186.8383339808561
 20
10.30347344957082
 10
188.6230350073192
 20
9.335012650572274
 10
190.625746504051
 20
9.000035680154301
 10
195.6257465040511
 20
9.000035680154301
  0
LWPOLYLINE
  5
41
100
AcDbEntity
  8
SketchLayer
  6
BYLAYER
 62
    4
370
   -1
100
AcDbPolyline
 90
    6
 70
    0
 43
0
 10
214.6901726172467
 20
7.0000277512311
 10
219.6901726172467
 20
7.0000277512311
 10
220.7062766455355
 20
7.0000277512311
 10
225.7062766455356
 20
7.0000277512311
 10
226.7223856738436
 20
7.0000277512311
 10
231.7223856738436
 20
7.0000277512311
  0
LWPOLYLINE
  5
42
100
AcDbEntity
  8
SketchLayer
  6
BYLAYER
 62
    4
370
   -1
100
AcDbPolyline
 90
   86
 70
    0
 43
0
 10
0
 20
6.00002378676952
 10
5.000000000000016
 20
6.00002378676952
 10
8.805378917029667
 20
6.374819800659018
 10
12.46451591042342
 20
7.484807568552077
 10
15.83679860033711
 20
9.287333155450197
 10
18.79262729558078
 20
11.71311657785888
 10
22.32816120151343
 20
15.2486504837917
 10
28.43205696863101
 20
19.32714182223611
 10
35.63209285597792
 20
20.7593183198717
 10
40.63209285597792
 20
20.7593183198717
 10
47.83212874332484
 20
19.32714182223612
 10
53.93602451044241
 20
15.2486504837917
 10
57.47155841637506
 20
11.71311657785888
 10
60.42738711161873
 20
9.287333155450199
 10
63.79966980153241
 20
7.484807568552077
 10
67.45880679492616
 20
6.374819800659019
 10
71.26418571195582
 20
6.000023786769521
 10
76.264185711956
 20
6.000023786769521
 10
77.28029474026516
 20
7.000027751231109
 10
82.28029474026459
 20
7.000027751231109
 10
83.29640376857377
 20
8.000031715692696
 10
88.29640376857375
 20
8.000031715692696
 10
89.31251279688293
 20
8.000031715692696
 10
94.3125127968829
 20
8.000031715692696
 10
95.32861682517226
 20
8.000031715692696
 10
100.3286168251723
 20
8.000031715692696
 10
101.3447208534616
 20
7.000027751231109
 10
106.3447208534616
 20
7.000027751231109
 10
107.360824881751
 20
6.000023786769521
 10
112.3608248817509
 20
6.000023786769521
 10
113.3769339100601
 20
8.000031715692696
 10
118.3769339100601
 20
8.000031715692696
 10
119.3930429383693
 20
10.00003964461587
 10
124.3930429383693
 20
10.00003964461587
 10
126.070338145006
 20
10.2805863992482
 10
127.5650430217957
 20
11.09168157437924
 10
128.7144432473936
 20
12.34504205073689
 10
129.3934153383106
 20
13.90421149000179
 10
130.6060934634912
 20
18.7549239907284
 10
133.9196842391646
 20
26.36414600419414
 10
139.5291058107054
 20
32.48089198597666
 10
146.8236987751602
 20
36.43929446461838
 10
155.0093947212102
 20
37.80844591035814
 10
160.0093947212102
 20
37.80844591035814
 10
168.1950906672602
 20
36.43929446461838
 10
175.489683631715
 20
32.48089198597666
 10
181.0991052032558
 20
26.36414600419414
 10
184.4126959789292
 20
18.7549239907284
 10
185.6253741041097
 20
13.90421149000179
 10
186.3043461950267
 20
12.3450420507369
 10
187.4537464206246
 20
11.09168157437925
 10
188.9484512974143
 20
10.2805863992482
 10
190.625746504051
 20
10.00003964461587
 10
195.6257465040511
 20
10.00003964461587
 10
196.6418555323602
 20
8.000031715692701
 10
201.6418555323602
 20
8.000031715692701
 10
202.6579645606694
 20
6.000023786769535
 10
207.6579645606691
 20
6.000023786769535
 10
208.6740685889579
 20
7.0000277512311
 10
213.6740685889579
 20
7.0000277512311
 10
214.6901726172467
 20
8.000031715692701
 10
219.6901726172467
 20
8.000031715692701
 10
220.7062766455355
 20
8.000031715692701
 10
225.7062766455356
 20
8.000031715692701
 10
226.7223856738436
 20
8.000031715692701
 10
231.7223856738436
 20
8.000031715692701
 10
232.7384947021516
 20
7.0000277512311
 10
237.7384947021516
 20
7.0000277512311
 10
238.7546037304596
 20
6.000023786769535
 10
243.7546037304595
 20
6.000023786769535
 10
247.5599826474892
 20
6.374819800659079
 10
251.2191196408841
 20
7.484807568552154
 10
254.5914023307957
 20
9.287333155449948
 10
257.5472310260402
 20
11.71311657785899
 10
261.0827649319729
 20
15.24865048379184
 10
267.1866606990895
 20
19.32714182223584
 10
274.3866965864376
 20
20.75931831987178
 10
279.3866965864376
 20
20.75931831987178
 10
286.5867324737856
 20
19.32714182223584
 10
292.6906282409022
 20
15.24865048379184
 10
296.226162146835
 20
11.71311657785899
 10
299.1819908420795
 20
9.287333155449948
 10
302.554273531991
 20
7.484807568552154
 10
306.2134105253859
 20
6.374819800659079
 10
310.0187894424156
 20
6.000023786769539
 10
315.0187894424156
 20
6.000023786769539
  0
LWPOLYLINE
  5
43
100
AcDbEntity
  8
SketchLayer
  6
BYLAYER
 62
    2
370
   -1
100
AcDbPolyline
 90
   86
 70
    0
 43
0
 10
0
 20
7.000027751231108
 10
5.000000000000016
 20
7.000027751231108
 10
8.610288143603148
 20
7.355608688943475
 10
12.08182939328386
 20
8.408691231238848
 10
15.28122639780097
 20
10.11880145176125
 10
18.08551949228998
 20
12.42022938116931
 10
21.6210483982034
 20
15.95575828708231
 10
28.04937045149144
 20
20.25102548492288
 10
35.63209285597792
 20
21.75932228433329
 10
40.63209285597792
 20
21.75932228433329
 10
48.2148152604644
 20
20.25102548492289
 10
54.64313731375244
 20
15.95575828708231
 10
58.17866621966586
 20
12.42022938116932
 10
60.98295931415487
 20
10.11880145176125
 10
64.18235631867198
 20
8.408691231238848
 10
67.65389756835268
 20
7.355608688943476
 10
71.26418571195582
 20
7.000027751231109
 10
76.264185711956
 20
7.000027751231109
 10
77.28029474026516
 20
8.000031715692696
 10
82.28029474026459
 20
8.000031715692696
 10
83.29640376857377
 20
9.000035680154282
 10
88.29640376857375
 20
9.000035680154282
 10
89.31251279688293
 20
9.000035680154282
 10
94.3125127968829
 20
9.000035680154282
 10
95.32861682517226
 20
9.000035680154282
 10
100.3286168251723
 20
9.000035680154282
 10
101.3447208534616
 20
8.000031715692696
 10
106.3447208534616
 20
8.000031715692696
 10
107.360824881751
 20
7.000027751231109
 10
112.3608248817509
 20
7.000027751231109
 10
113.3769339100601
 20
9.000035680154282
 10
118.3769339100601
 20
9.000035680154282
 10
119.3930429383693
 20
11.00004360907745
 10
124.3930429383693
 20
11.00004360907745
 10
125.7449168548906
 20
11.22616014792414
 10
126.9496255820057
 20
11.87989469920751
 10
127.8760249235301
 20
12.89008421152704
 10
128.4232714922273
 20
14.14674745152249
 10
129.635949617409
 20
18.99745995224909
 10
133.0812709153203
 20
26.90918316496449
 10
138.9136883709165
 20
33.2691001107851
 10
146.4982824850651
 20
37.38486821329428
 10
155.0093947212102
 20
38.80844987481974
 10
160.0093947212102
 20
38.80844987481974
 10
168.5205069573553
 20
37.38486821329428
 10
176.1051010715039
 20
33.2691001107851
 10
181.9375185271001
 20
26.90918316496449
 10
185.3828398250114
 20
18.99745995224909
 10
186.5955179501931
 20
14.14674745152248
 10
187.1427645188903
 20
12.89008421152702
 10
188.0691638604146
 20
11.8798946992075
 10
189.2738725875297
 20
11.22616014792412
 10
190.625746504051
 20
11.00004360907747
 10
195.6257465040511
 20
11.00004360907747
 10
196.6418555323602
 20
9.000035680154301
 10
201.6418555323602
 20
9.000035680154301
 10
202.6579645606694
 20
7.0000277512311
 10
207.6579645606691
 20
7.0000277512311
 10
208.6740685889579
 20
8.000031715692701
 10
213.6740685889579
 20
8.000031715692701
 10
214.6901726172467
 20
9.000035680154301
 10
219.6901726172467
 20
9.000035680154301
 10
220.7062766455355
 20
9.000035680154301
 10
225.7062766455356
 20
9.000035680154301
 10
226.7223856738436
 20
9.000035680154301
 10
231.7223856738436
 20
9.000035680154301
 10
232.7384947021516
 20
8.000031715692701
 10
237.7384947021516
 20
8.000031715692701
 10
238.7546037304596
 20
7.0000277512311
 10
243.7546037304595
 20
7.0000277512311
 10
247.3648918740627
 20
7.355608688943569
 10
250.8364331237445
 20
8.408691231238922
 10
254.0358301282607
 20
10.11880145176102
 10
256.8401232227482
 20
12.42022938116945
 10
260.3756521286617
 20
15.95575828708245
 10
266.80397418195
 20
20.25102548492261
 10
274.3866965864376
 20
21.75932228433334
 10
279.3866965864376
 20
21.75932228433334
 10
286.9694189909251
 20
20.25102548492261
 10
293.3977410442134
 20
15.95575828708245
 10
296.9332699501269
 20
12.42022938116945
 10
299.7375630446144
 20
10.11880145176102
 10
302.9369600491306
 20
8.408691231238922
 10
306.4085012988124
 20
7.355608688943569
 10
310.0187894424156
 20
7.000027751231104
 10
315.0187894424156
 20
7.000027751231104
  0
LWPOLYLINE
  5
44
100
AcDbEntity
  8
SketchLayer
  6
BYLAYER
 62
    4
370
   -1
100
AcDbPolyline
 90
    2
 70
    0
 43
0
 10
89.31251279688293
 20
10.00003964461587
 10
94.3125127968829
 20
10.00003964461587
  0
LWPOLYLINE
  5
45
100
AcDbEntity
  8
SketchLayer
  6
BYLAYER
 62
    4
370
   -1
100
AcDbPolyline
 90
    2
 70
    0
 43
0
 10
220.7062766455355
 20
10.00003964461587
 10
225.7062766455356
 20
10.00003964461587
  0
LWPOLYLINE
  5
46
100
AcDbEntity
  8
SketchLayer
  6
BYLAYER
 62
    4
370
   -1
100
AcDbPolyline
 90
   86
 70
    0
 43
0
 10
0
 20
8.000031715692694
 10
5.000000000000016
 20
8.000031715692694
 10
8.41519237015625
 20
8.336397577227931
 10
11.69914787616353
 20
9.332574893925617
 10
14.72565419526483
 20
10.95027474809213
 10
17.37841168899919
 20
13.12733718445992
 10
20.9139405949126
 20
16.66287109039274
 10
27.66668393435188
 20
21.17490914760965
 10
35.63209285597792
 20
22.75932624879487
 10
40.63209285597792
 20
22.75932624879487
 10
48.59750177760397
 20
21.17490914760965
 10
55.35024511704324
 20
16.66287109039274
 10
58.88577402295665
 20
13.12733718445992
 10
61.53853151669101
 20
10.95027474809213
 10
64.5650378357923
 20
9.332574893925619
 10
67.84899334179958
 20
8.336397577227933
 10
71.26418571195582
 20
8.000031715692696
 10
76.264185711956
 20
8.000031715692696
 10
77.28029474026516
 20
9.000035680154282
 10
82.28029474026459
 20
9.000035680154282
 10
83.29640376857377
 20
10.00003964461587
 10
88.29640376857375
 20
10.00003964461587
 10
89.31251279688293
 20
11.00004360907745
 10
94.3125127968829
 20
11.00004360907745
 10
95.32861682517226
 20
10.00003964461587
 10
100.3286168251723
 20
10.00003964461587
 10
101.3447208534616
 20
9.000035680154282
 10
106.3447208534616
 20
9.000035680154282
 10
107.360824881751
 20
8.000031715692696
 10
112.3608248817509
 20
8.000031715692696
 10
113.3769339100601
 20
10.00003964461587
 10
118.3769339100601
 20
10.00003964461587
 10
119.3930429383693
 20
12.00004757353904
 10
124.3930429383693
 20
12.00004757353904
 10
125.4194955647752
 20
12.17173389660008
 10
126.3342131422372
 20
12.66810282401595
 10
127.0376115996858
 20
13.43512137229736
 10
127.4531226461247
 20
14.389288413063
 10
128.6658007713064
 20
19.2400009137896
 10
132.242857591476
 20
27.45422032573477
 10
138.2982759311468
 20
34.05730823559353
 10
146.1728611949497
 20
38.33044196197023
 10
155.0093947212102
 20
39.80845383928135
 10
160.0093947212102
 20
39.80845383928135
 10
168.8459282474707
 20
38.33044196197023
 10
176.7205135112735
 20
34.05730823559353
 10
182.7759318509444
 20
27.45422032573477
 10
186.352988671114
 20
19.2400009137896
 10
187.5656667962957
 20
14.38928841306298
 10
187.9811778427346
 20
13.43512137229733
 10
188.6845763001832
 20
12.66810282401597
 10
189.5992938776452
 20
12.17173389660008
 10
190.625746504051
 20
12.00004757353903
 10
195.6257465040511
 20
12.00004757353903
 10
196.6418555323602
 20
10.00003964461587
 10
201.6418555323602
 20
10.00003964461587
 10
202.6579645606694
 20
8.000031715692701
 10
207.6579645606691
 20
8.000031715692701
 10
208.6740685889579
 20
9.000035680154301
 10
213.6740685889579
 20
9.000035680154301
 10
214.6901726172467
 20
10.00003964461587
 10
219.6901726172467
 20
10.00003964461587
 10
220.7062766455355
 20
11.00004360907747
 10
225.7062766455356
 20
11.00004360907747
 10
226.7223856738436
 20
10.00003964461587
 10
231.7223856738436
 20
10.00003964461587
 10
232.7384947021516
 20
9.000035680154301
 10
237.7384947021516
 20
9.000035680154301
 10
238.7546037304596
 20
8.000031715692701
 10
243.7546037304595
 20
8.000031715692701
 10
247.1697961006169
 20
8.336397577228023
 10
250.4537516066219
 20
9.33257489392569
 10
253.4802579257234
 20
10.95027474809189
 10
256.1330154194586
 20
13.12733718446003
 10
259.668544325372
 20
16.66287109039288
 10
266.4212876648104
 20
21.17490914760938
 10
274.3866965864376
 20
22.75932624879495
 10
279.3866965864376
 20
22.75932624879495
 10
287.3521055080647
 20
21.17490914760938
 10
294.1048488475031
 20
16.66287109039288
 10
297.6403777534165
 20
13.12733718446003
 10
300.2931352471517
 20
10.95027474809189
 10
303.3196415662532
 20
9.33257489392569
 10
306.6035970722582
 20
8.336397577228023
 10
310.0187894424156
 20
8.000031715692705
 10
315.0187894424156
 20
8.000031715692705
  0
LWPOLYLINE
  5
47
100
AcDbEntity
  8
SketchLayer
  6
BYLAYER
 62
    2
370
   -1
100
AcDbPolyline
 90
   86
 70
    0
 43
0
 10
0
 20
9.000035680154282
 10
5.000000000000016
 20
9.000035680154282
 10
8.22010159672973
 20
9.317186465512389
 10
11.31646135902283
 20
10.25645855661239
 10
14.17008199272869
 20
11.781748044423
 10
16.67129888568915
 20
13.83444498775053
 10
20.20683279162181
 20
17.36997889368335
 10
27.28400241723156
 20
22.09879281029643
 10
35.63209285597792
 20
23.75933021325646
 10
40.63209285597792
 20
23.75933021325646
 10
48.98018329472429
 20
22.09879281029643
 10
56.05735292033403
 20
17.36997889368335
 10
59.59288682626669
 20
13.83444498775054
 10
62.09410371922715
 20
11.781748044423
 10
64.94772435293301
 20
10.25645855661239
 10
68.0440841152261
 20
9.317186465512391
 10
71.26418571195582
 20
9.000035680154282
 10
76.264185711956
 20
9.000035680154282
 10
77.28029474026516
 20
10.00003964461587
 10
82.28029474026459
 20
10.00003964461587
 10
83.29640376857377
 20
11.00004360907745
 10
88.29640376857375
 20
11.00004360907745
 10
89.31251279688293
 20
12.00004757353904
 10
94.3125127968829
 20
12.00004757353904
 10
95.32861682517226
 20
11.00004360907745
 10
100.3286168251723
 20
11.00004360907745
 10
101.3447208534616
 20
10.00003964461587
 10
106.3447208534616
 20
10.00003964461587
 10
107.360824881751
 20
9.000035680154282
 10
112.3608248817509
 20
9.000035680154282
 10
113.3769339100601
 20
11.00004360907745
 10
118.3769339100601
 20
11.00004360907745
 10
119.3930429383693
 20
13.00005153800063
 10
124.3930429383693
 20
13.00005153800063
 10
125.0940792746801
 20
13.11730764527602
 10
125.7187957024472
 20
13.4563109488244
 10
126.1991982758415
 20
13.98015853306768
 10
126.4829788000425
 20
14.63182437458369
 10
127.695656925223
 20
19.48253687531029
 10
131.4044392676113
 20
27.99926248652492
 10
137.682858491358
 20
34.84552136042185
 10
145.8474399048353
 20
39.27601571064619
 10
155.0093947212102
 20
40.80845780374288
 10
160.0093947212102
 20
40.80845780374288
 10
169.171349537585
 20
39.27601571064619
 10
177.3359309510624
 20
34.84552136042185
 10
183.614350174809
 20
27.99926248652492
 10
187.3231325171974
 20
19.48253687531029
 10
188.5358106423779
 20
14.63182437458368
 10
188.8195911665789
 20
13.98015853306768
 10
189.2999937399732
 20
13.4563109488244
 10
189.9247101677402
 20
13.11730764527601
 10
190.625746504051
 20
13.00005153800064
 10
195.6257465040511
 20
13.00005153800064
 10
196.6418555323602
 20
11.00004360907747
 10
201.6418555323602
 20
11.00004360907747
 10
202.6579645606694
 20
9.000035680154301
 10
207.6579645606691
 20
9.000035680154301
 10
208.6740685889579
 20
10.00003964461587
 10
213.6740685889579
 20
10.00003964461587
 10
214.6901726172467
 20
11.00004360907747
 10
219.6901726172467
 20
11.00004360907747
 10
220.7062766455355
 20
12.00004757353903
 10
225.7062766455356
 20
12.00004757353903
 10
226.7223856738436
 20
11.00004360907747
 10
231.7223856738436
 20
11.00004360907747
 10
232.7384947021516
 20
10.00003964461587
 10
237.7384947021516
 20
10.00003964461587
 10
238.7546037304596
 20
9.000035680154301
 10
243.7546037304595
 20
9.000035680154301
 10
246.9747053271881
 20
9.317186465512478
 10
250.0710650894824
 20
10.25645855661246
 10
252.9246857231861
 20
11.78174804442277
 10
255.4259026161474
 20
13.83444498775065
 10
258.9614365220824
 20
17.36997889368349
 10
266.0386061476901
 20
22.09879281029615
 10
274.3866965864376
 20
23.75933021325655
 10
279.3866965864376
 20
23.75933021325655
 10
287.734787025185
 20
22.09879281029615
 10
294.812426652656
 20
17.36950889182017
 10
298.3474905567277
 20
13.83444498775065
 10
300.848707449689
 20
11.78174804442277
 10
303.7023280833927
 20
10.25645855661246
 10
306.798687845687
 20
9.317186465512478
 10
310.0187894424156
 20
9.000035680154307
 10
315.0187894424156
 20
9.000035680154307
  0
ENDSEC
  0
SECTION
  2
OBJECTS
  0
DICTIONARY
  5
C
330
0
100
AcDbDictionary
281
    1
  3
ACAD_GROUP
350
D
  0
DICTIONARY
  5
D
330
C
100
AcDbDictionary
281
    1
  0
ENDSEC
  0
EOF
